<?xml version="1.0" standalone="no"?>
<!DOCTYPE svg PUBLIC "-//W3C//DTD SVG 1.1//EN" "http://www.w3.org/Graphics/SVG/1.1/DTD/svg11.dtd" >
<!--
2013-9-30: Created.
-->
<svg>
<metadata>
Created by iconfont
</metadata>
<defs>

<font id="iconfont" horiz-adv-x="1024" >
  <font-face
    font-family="iconfont"
    font-weight="500"
    font-stretch="normal"
    units-per-em="1024"
    ascent="896"
    descent="-128"
  />
    <missing-glyph />
    
    <glyph glyph-name="x" unicode="x" horiz-adv-x="1001"
d="M281 543q-27 -1 -53 -1h-83q-18 0 -36.5 -6t-32.5 -18.5t-23 -32t-9 -45.5v-76h912v41q0 16 -0.5 30t-0.5 18q0 13 -5 29t-17 29.5t-31.5 22.5t-49.5 9h-133v-97h-438v97zM955 310v-52q0 -23 0.5 -52t0.5 -58t-10.5 -47.5t-26 -30t-33 -16t-31.5 -4.5q-14 -1 -29.5 -0.5
t-29.5 0.5h-32l-45 128h-439l-44 -128h-29h-34q-20 0 -45 1q-25 0 -41 9.5t-25.5 23t-13.5 29.5t-4 30v167h911zM163 247q-12 0 -21 -8.5t-9 -21.5t9 -21.5t21 -8.5q13 0 22 8.5t9 21.5t-9 21.5t-22 8.5zM316 123q-8 -26 -14 -48q-5 -19 -10.5 -37t-7.5 -25t-3 -15t1 -14.5
t9.5 -10.5t21.5 -4h37h67h81h80h64h36q23 0 34 12t2 38q-5 13 -9.5 30.5t-9.5 34.5q-5 19 -11 39h-368zM336 498v228q0 11 2.5 23t10 21.5t20.5 15.5t34 6h188q31 0 51.5 -14.5t20.5 -52.5v-227h-327z" />
    

    
    <glyph glyph-name="chuangjian" unicode="&#58880;" d="M480.6892 49.9116v13.467647999999999c0 3.586 0.2785 7.808 0.8765 12.5901h-214.20032c-15.0211 0-27.8907 5.3381-38.569 16.0983-10.7182 10.7561-16.0573 23.9043-16.0573 39.4424 0 15.5423 5.3391 28.8502 16.0573 39.9258 10.6783 11.0756 23.5479 16.5745 38.569 16.5745h252.331008c21.9535 35.3024 51.0403 63.4317 87.1393 84.31 36.139 20.9582 75.902 31.3969 119.253 31.3969 4.6223 0 9.5232-0.1597 14.7415-0.4782 5.1804-0.2386 10.3987-0.7168 15.618-1.3548V524.292864H629.8255359999999c-16.1772 0-30.0421 3.7458-41.6369 11.2364-11.5548 7.4906-20.9183 16.7342-28.1702 27.8108-7.211 10.9967-12.5512 23.1096-16.0174 36.2578-3.4662 13.1492-5.2193 25.4208-5.2193 36.8159V748.454656H293.50297600000005h-86.81984-69.80608000000001c-8.3272 0-16.6543-3.2666-22.9898-9.8017-6.3754-6.614-9.5232-15.2207-9.5232-23.8264v-81.998848-31.157248-548.3315200000001h-0.039936v-113.156096c0-8.6057 3.1877-17.2124 9.5222-23.8285 6.3355-6.5341 14.6627-9.7997 22.9908-9.7997h76.978176c0.7977-0.0799 1.5944-0.0799 2.391-0.0799h307.83488c-13.866 20.3203-24.5443 42.5523-32.0758 66.7781C484.4349-2.5224 480.6892 23.0561 480.6892 49.9116zM228.7964 396.0748c10.6783 10.7571 23.5479 16.0963 38.569 16.0963H592.5304319999999c15.0221 0 27.8917-5.3391 38.6089-16.0963 10.6783-10.7581 16.0184-23.9063 16.0184-39.4455 0-15.5392-5.3402-28.8471-16.0184-39.9237-10.7172-11.0766-23.5868-16.5765-38.6089-16.5765H267.365376c-15.0211 0-27.8907 5.4999-38.569 16.5765-10.7182 11.0766-16.0573 24.3845-16.0573 39.9237C212.7391 372.1684 218.0782 385.3176 228.7964 396.0748zM905.1464 125.2954c-10.1202 23.9063-23.8664 44.7857-41.1976 62.7139-17.3332 17.9302-37.5736 32.1935-60.6822 42.6322-23.1096 10.4417-47.9734 15.7-74.5882 15.7-26.0178 0-50.562-5.2582-73.7116-15.7-23.1086-10.4376-43.35-24.702-60.6812-42.6322-17.3332-17.9282-31.0794-38.8076-41.1986-62.7139s-15.1808-49.3261-15.1808-76.2604c0-27.4924 5.0606-53.2316 15.1808-77.1379 10.1202-23.9084 23.8664-44.7857 41.1986-62.7139 17.3312-17.9323 37.5716-32.1956 60.6812-42.6342 23.1496-10.4397 47.6938-15.6979 73.7116-15.6979 26.6148 0 51.4775 5.2582 74.5882 15.6979 23.1076 10.4376 43.349 24.702 60.6822 42.6342 17.3322 17.9282 31.0784 38.8055 41.1976 62.7139 10.1212 23.9063 15.1798 49.6456 15.1798 77.1379C920.3261 75.9693 915.2676 101.3901 905.1464 125.2954zM753.8596-62.2103c-0.1587-7.4895-2.9491-13.9438-8.447-19.4417-5.4979-5.4999-11.9931-8.3681-19.4836-8.448-7.4496-0.1577-13.865 2.4699-19.1652 7.7302-5.3391 5.3402-7.9288 11.7135-7.809 19.2041l1.3947 82.3183-82.9563-0.7178c-7.4496-0.1577-13.865 2.4699-19.1652 7.7322-5.3381 5.3381-7.9278 11.7125-7.809 19.202 0.1597 7.4916 2.9481 14.0278 8.448 19.5236 5.4979 5.42 11.9921 8.2883 19.4826 8.3681l82.9153 2.0716 1.3947 82.3183c0.1188 7.4895 2.9481 13.9438 8.446 19.4437 5.4979 5.4979 11.9542 8.2862 19.4437 8.446 7.4906 0.0799 13.9059-2.4699 19.2051-7.81 5.3002-5.3381 7.9288-11.7125 7.7691-19.2041l-0.7557-82.9542 82.3173 1.4316c7.4906 0.0799 13.9049-2.4699 19.2051-7.808 5.2992-5.3402 7.8889-11.7135 7.7691-19.2061-0.1198-7.4895-2.9082-13.9438-8.406-19.4437-5.4999-5.4958-11.9931-8.2862-19.4836-8.4439l-82.3183-1.3558L753.8596-62.2103zM658.3532 581.6676h0.159744 97.93536v14.344192V714.826496c0 8.6057-3.1867 17.2124-9.5222 23.8264-6.3754 6.5341-14.7016 9.8017-23.0298 9.8017H595.161088h-1.753088-0.079872v-99.529728c0-17.2124 6.3355-34.4248 19.0464-47.574C625.0834 588.2816 641.7388 581.6676 658.3532 581.6676z"  horiz-adv-x="1024" />

    
    <glyph glyph-name="yijianfankui" unicode="&#58934;" d="M781.312 100.64 242.688 100.64c-101.824 0-184.448-82.56-184.448-184.448l0-69.312 907.456 0 0 69.312C965.696 18.08 883.136 100.64 781.312 100.64zM707.904 665.696c-170.688 155.392-472.064 56.32-472.064 56.32S275.2 721.824 296.576 705.632C325.312 684 300.096 655.968 272.832 617.248c0-0.064-0.064-0.064-0.064-0.128C272.704 617.056 272.576 616.928 272.512 616.8c0 0 0-0.064 0-0.064-33.856-47.808-53.76-106.24-53.76-169.28 0-161.984 131.328-293.312 293.312-293.312s293.312 131.328 293.312 293.312C805.312 534.112 767.68 612 707.904 665.696zM341.952 543.904l231.744 0c19.392 0 35.136-15.744 35.136-35.136 0-19.392-15.744-35.136-35.136-35.136L341.952 473.632c-19.392 0-35.136 15.744-35.136 35.136C306.816 528.16 322.56 543.904 341.952 543.904zM682.048 336.864 341.952 336.864c-19.392 0-35.136 15.744-35.136 35.136 0 19.392 15.744 35.136 35.136 35.136l340.096 0c19.392 0 35.136-15.744 35.136-35.136C717.184 352.544 701.44 336.864 682.048 336.864z"  horiz-adv-x="1024" />

    
    <glyph glyph-name="icon" unicode="&#58896;" d="M975.994-73.946l-199.475 187.113c115.098 158.103 97.101 380.864-49.207 518.099-158.479 148.643-407.428 140.682-556.058-17.783-148.643-158.456-140.682-407.402 17.784-556.058 146.303-137.241 369.759-140.966 520.184-16.005l199.475-187.112c19.813-18.585 50.94-17.59 69.524 2.224 18.585 19.812 17.59 50.939-2.224 69.523l-0.004-0.001zM234.447 105.854c-131.715 123.541-138.334 330.493-14.783 462.218 123.56 131.715 330.515 138.334 462.214 14.783 131.73-123.566 138.349-330.514 14.783-462.218-123.536-131.725-330.49-138.344-462.214-14.783v0zM320.376 476.506c-9.86 9.859-25.833 9.859-35.694 0-34.514-34.514-53.502-80.373-53.502-129.183 0-48.789 18.986-94.676 53.502-129.139 4.931-4.929 11.388-7.39 17.847-7.39 6.459 0 12.917 2.461 17.847 7.39 9.867 9.867 9.867 25.864 0 35.7-24.947 24.947-38.707 58.135-38.707 93.439 0 35.328 13.754 68.507 38.707 93.483 9.866 9.868 9.866 25.842-0.001 35.7v0zM294.689 456.158z"  horiz-adv-x="1024" />

    
    <glyph glyph-name="guzhang" unicode="&#59028;" d="M521.787412-74.559744M511.903298-14.121234c-84.136236 0-163.235758 32.765241-222.729757 92.258217-59.492976 59.492976-92.257194 138.593522-92.257194 222.728734 0 84.136236 32.764218 163.237805 92.257194 222.730781 59.492976 59.493999 138.593522 92.258217 222.729757 92.258217s163.237805-32.764218 222.730781-92.258217c59.493999-59.492976 92.258217-138.594545 92.258217-222.730781 0-84.136236-32.765241-163.236781-92.258217-222.728734C675.140079 18.644007 596.039533-14.121234 511.903298-14.121234zM511.903298 569.805936c-148.293441 0-268.938172-120.645754-268.938172-268.939195 0-148.293441 120.644731-268.938172 268.938172-268.938172 148.294464 0 268.940219 120.644731 268.940219 268.938172C780.844539 449.160181 660.197762 569.805936 511.903298 569.805936zM488.878908 485.960319l46.048779 0 0-301.525358-46.048779 0 0 301.525358ZM489.057987 144.313172l46.048779 0 0-30.397311-46.048779 0 0 30.397311Z"  horiz-adv-x="1024" />

    
    <glyph glyph-name="tuichu" unicode="&#58912;" d="M892.018571 407.894336c-20.781302 49.129954-50.523697 93.247754-88.404446 131.128503-37.880749 37.879726-81.998549 67.623144-131.128503 88.403422-12.281721 5.194302-24.75173 9.754155-37.379329 13.707187-0.177032-18.057261-0.425695-36.114522 0.164752-54.152341 138.699945-50.53393 238.012835-183.720302 238.012835-339.679329 0-199.271486-162.120354-361.390817-361.39184-361.390817-199.270463 0-361.389794 162.119331-361.389794 361.390817 0 155.037029 98.141204 287.566438 235.554854 338.771657l0 54.229089c-11.733229-3.758604-23.326265-8.04114-34.757618-12.876262-49.129954-20.780279-93.247754-50.523697-131.12748-88.404446-37.880749-37.879726-67.623144-81.997526-88.404446-131.12748-21.519106-50.878784-32.43062-104.910375-32.43062-160.593582s10.911514-109.714797 32.43062-160.593582c20.780279-49.130977 50.523697-93.247754 88.404446-131.128503 37.879726-37.880749 81.997526-67.624167 131.12748-88.404446 50.877761-21.519106 104.909351-32.43062 160.592558-32.43062s109.715821 10.911514 160.594605 32.43062c49.129954 20.780279 93.247754 50.523697 131.128503 88.404446 37.880749 37.879726 67.623144 81.997526 88.404446 131.128503 21.519106 50.878784 32.43062 104.910375 32.43062 160.593582S913.537677 357.016575 892.018571 407.894336zM481.193879 747.240067l61.398372 0 0-447.240067-61.398372 0 0 447.240067Z"  horiz-adv-x="1024" />

    
    <glyph glyph-name="qixiangzhan" unicode="&#59146;" d="M959.69595 598.459532c0 82.421174-66.815755 149.236929-149.236929 149.236929L213.539956 747.696462c-82.421174 0-149.236929-66.815755-149.236929-149.236929l0-596.919065c0-82.421174 66.815755-149.236929 149.236929-149.236929L810.459021-147.696462c82.421174 0 149.236929 66.815755 149.236929 149.236929L959.69595 598.459532 959.69595 598.459532zM884.994598 27.73506c0-56.196906-45.557592-101.754498-101.753475-101.754498l-543.508621 0c-56.195883 0-101.752452 45.557592-101.752452 101.754498L137.98005 571.241634c0 56.196906 45.556569 101.753475 101.752452 101.753475l543.510668 0c56.195883 0 101.753475-45.556569 101.753475-101.753475L884.994598 27.73506 884.994598 27.73506zM511.999488 514.894302c14.838963 0 26.861788 12.032034 26.861788 26.861788l0 35.815717c0 14.838963-12.022825 26.861788-26.861788 26.861788s-26.861788-12.022825-26.861788-26.861788l0-35.815717C485.137701 526.926336 497.160525 514.894302 511.999488 514.894302zM270.243399 326.861788l-35.815717 0c-14.838963 0-26.861788-12.022825-26.861788-26.861788 0-14.829753 12.022825-26.861788 26.861788-26.861788l35.815717 0c14.838963 0 26.861788 12.032034 26.861788 26.861788C297.105187 314.838963 285.082362 326.861788 270.243399 326.861788zM702.594361 453.536862l25.330922 25.322735c10.484795 10.492982 10.484795 27.500331 0 37.993313-10.492982 10.483772-27.499307 10.483772-37.992289 0l-25.322735-25.331945c-10.492982-10.483772-10.492982-27.500331 0-37.984103C675.09403 443.04388 692.109566 443.04388 702.594361 453.536862zM325.88158 146.463138l-25.330922-25.322735c-10.484795-10.492982-10.484795-27.500331 0-37.993313 10.492982-10.483772 27.500331-10.483772 37.992289 0l25.322735 25.331945c10.492982 10.483772 10.492982 27.499307 0 37.984103C353.373725 156.95612 336.366376 156.95612 325.88158 146.463138zM789.571295 326.861788l-35.815717 0c-14.838963 0-26.861788-12.022825-26.861788-26.861788 0-14.829753 12.022825-26.861788 26.861788-26.861788l35.815717 0c14.838963 0 26.861788 12.032034 26.861788 26.861788C816.433082 314.838963 804.410258 326.861788 789.571295 326.861788zM705.759447 149.628224c-10.483772 10.492982-27.500331 10.492982-37.984103 0-10.492982-10.483772-10.492982-27.500331 0-37.984103l25.322735-25.331945c10.492982-10.483772 27.500331-10.483772 37.993313 0 10.483772 10.492982 10.483772 27.500331 0 37.993313L705.759447 149.628224zM511.999488 470.124655c-93.954859 0-170.124655-76.169797-170.124655-170.124655s76.169797-170.124655 170.124655-170.124655 170.124655 76.169797 170.124655 170.124655S605.95537 470.124655 511.999488 470.124655zM511.999488 183.59892c-64.286142 0-116.40108 52.114938-116.40108 116.40108s52.114938 116.40108 116.40108 116.40108 116.40108-52.114938 116.40108-116.40108S576.286654 183.59892 511.999488 183.59892zM511.999488 85.105698c-14.838963 0-26.861788-12.022825-26.861788-26.861788l0-35.815717c0-14.829753 12.022825-26.861788 26.861788-26.861788s26.861788 12.032034 26.861788 26.861788l0 35.815717C538.861276 73.082874 526.838452 85.105698 511.999488 85.105698zM322.717518 450.371776c10.483772-10.492982 27.491121-10.492982 37.984103 0s10.492982 27.500331 0 37.992289l-25.322735 25.322735c-10.492982 10.492982-27.500331 10.492982-37.993313 0-10.483772-10.492982-10.483772-27.500331 0-37.992289L322.717518 450.371776z"  horiz-adv-x="1024" />

    
    <glyph glyph-name="fenbulei" unicode="&#58981;" d="M831.8 684.4l-640 0c-35.3 0-64-28.7-64-64l0-640c0-35.3 28.7-64 64-64l640 0c35.3 0 64 28.7 64 64l0 640C895.8 655.8 867.1 684.4 831.8 684.4zM831.8-20.6l-640 0L191.8 619.4l640 0L831.8-20.6zM307.1 504.3m-48 0a48 48 0 1 0 96 0 48 48 0 1 0-96 0ZM464.6 503.8m-48 0a48 48 0 1 0 96 0 48 48 0 1 0-96 0ZM622.1 504.8m-48 0a48 48 0 1 0 96 0 48 48 0 1 0-96 0ZM307.1 346.9m-48 0a48 48 0 1 0 96 0 48 48 0 1 0-96 0ZM307.1 189.5m-48 0a48 48 0 1 0 96 0 48 48 0 1 0-96 0ZM463.8 346.9m-48 0a48 48 0 1 0 96 0 48 48 0 1 0-96 0ZM724.1 93.5m-48 0a48 48 0 1 0 96 0 48 48 0 1 0-96 0Z"  horiz-adv-x="1024" />

    
    <glyph glyph-name="tongji" unicode="&#58882;" d="M0.020966 896l64.583924 0 0-1024-64.583924 0 0 1024ZM0.020966-63.473381l1023.958044 0 0-64.526619-1023.958044 0 0 64.526619ZM137.452012 796.0588c0-14.773472-14.359033-26.860764-31.907711-26.860764L38.894322 769.198036c-17.549701 0-31.907711 12.087293-31.907711 26.860764s14.358009 26.860764 31.907711 26.860764l66.648956 0C123.09298 822.919564 137.452012 810.832272 137.452012 796.0588zM137.452012 619.547691c0-14.773472-14.359033-26.860764-31.907711-26.860764L38.894322 592.686926c-17.549701 0-31.907711 12.087293-31.907711 26.860764s14.358009 26.860764 31.907711 26.860764l66.648956 0C123.09298 646.408455 137.452012 634.321162 137.452012 619.547691zM137.452012 441.501622c0-14.773472-14.359033-26.860764-31.907711-26.860764L38.894322 414.640857c-17.549701 0-31.907711 12.087293-31.907711 26.860764s14.358009 26.860764 31.907711 26.860764l66.648956 0C123.09298 468.361363 137.452012 456.27407 137.452012 441.501622zM137.452012 263.455553c0-14.773472-14.359033-26.860764-31.907711-26.860764L38.894322 236.594789c-17.549701 0-31.907711 12.088316-31.907711 26.860764s14.358009 26.860764 31.907711 26.860764l66.648956 0C123.09298 290.316317 137.452012 278.229025 137.452012 263.455553zM137.452012 86.944444c0-14.773472-14.359033-26.860764-31.907711-26.860764L38.894322 60.083679c-17.549701 0-31.907711 12.088316-31.907711 26.860764s14.358009 26.860764 31.907711 26.860764l66.648956 0C123.09298 113.805208 137.452012 101.716892 137.452012 86.944444zM218.092634 479.873558l168.837336 0 0-494.232334-168.837336 0 0 494.232334ZM496.478992 633.362324l163.66043 0 0-647.720078-163.66043 0 0 647.720078ZM767.580433 789.918963l167.302377 0 0-804.276716-167.302377 0 0 804.276716Z"  horiz-adv-x="1024" />

    
    <glyph glyph-name="earth" unicode="&#58926;" d="M511.996418 831.622784C265.17701 831.622784 64.376705 630.822478 64.376705 384.00614c0-246.819408 200.800305-447.628924 447.619714-447.628924 246.825548 0 447.625854 200.808492 447.625854 447.628924C959.622272 630.822478 758.821967 831.622784 511.996418 831.622784zM805.237089 148.784884c-17.138332 8.962116-39.378869 17.621333-65.383126 25.37697 19.980054 53.309136 33.542954 112.461351 37.397748 174.082804l109.140723 0C879.281479 273.193335 850.021062 204.503906 805.237089 148.784884zM137.608589 348.244658l109.129466 0c3.828188-61.201897 17.225313-119.976512 36.984333-173.003216-25.77299-7.383154-48.364521-15.919575-65.822125-25.391297C173.601338 205.379856 144.673495 273.673266 137.608589 348.244658zM218.065016 618.357586c17.23657-9.293667 39.676651-17.938558 65.688071-25.514093-19.777439-53.046147-33.184797-111.847367-37.016055-173.077917L137.608589 419.765575C144.682705 494.428042 173.671946 562.794106 218.065016 618.357586zM476.23596 634.76937c-31.795147 1.463328-61.897745 4.757351-89.304955 9.072633 28.66997 48.883337 61.569264 84.605933 89.304955 102.748129L476.23596 634.76937zM476.23596 563.172729l0-143.406131L318.375629 419.766598c4.000104 57.790194 17.394159 110.751407 35.752272 156.805302C392.451742 569.658444 434.213891 564.927699 476.23596 563.172729zM476.23596 348.244658l0-143.473669c-40.276309-1.785669-82.502016-6.457062-122.044614-13.497409-18.390859 46.091758-31.809473 99.111299-35.815717 156.971078L476.23596 348.244658zM476.23596 133.232676l0-111.823831c-27.736715 18.145266-60.636009 53.871955-89.304955 102.754269C414.338215 128.478396 444.437743 131.772418 476.23596 133.232676zM547.753807 133.232676c32.260751-1.466398 62.232366-4.796236 89.23537-9.19236-28.65462-48.821939-61.522192-84.500533-89.23537-102.631472L547.753807 133.232676zM547.753807 204.797595 547.753807 348.244658l157.864424 0c-4.018523-57.996902-17.493419-111.127983-35.950793-157.295466C632.056841 198.002842 590.621127 202.970994 547.753807 204.797595zM547.753807 419.766598 547.753807 563.205475c42.86425 1.826602 84.303035 6.79373 121.913631 13.847379 18.457374-46.164413 31.93227-99.292424 35.950793-157.286256L547.753807 419.766598zM547.753807 634.76937 547.753807 746.594225c27.713178-18.127869 60.58075-53.807487 89.23537-102.629425C609.984127 639.568676 580.012512 636.238838 547.753807 634.76937zM669.55385 725.461929c29.700439-13.757329 57.32459-31.265074 82.238003-51.936883-11.267625-4.352121-25.205055-9.011234-41.4746-13.561877C697.831894 683.766294 684.112428 705.748958 669.55385 725.461929zM313.267285 659.191596c-16.700357 4.440126-30.979572 8.996908-42.318828 13.274328 25.242917 21.126156 53.2856 39.003316 83.486436 52.997028C339.71975 705.537134 325.860091 683.29148 313.267285 659.191596zM313.264215 108.817614c12.592806-24.103978 26.452465-46.348608 41.168632-66.274426-30.201859 13.990642-58.244542 31.871895-83.48746 53.000098C282.284643 99.817636 296.564881 104.377488 313.264215 108.817614zM710.317253 108.045017c16.271592-4.550643 30.210046-9.212826 41.476647-13.561877-24.913413-20.674878-52.53654-38.182624-82.240049-51.943023C684.112428 62.253088 697.831894 84.238822 710.317253 108.045017zM777.252735 419.766598c-3.854794 61.617359-17.417695 120.768551-37.400818 174.076664 26.006304 7.755638 48.249911 16.417925 65.385173 25.38004 44.783972-55.717999 74.043367-124.404358 81.156368-199.456704L777.252735 419.766598z"  horiz-adv-x="1024" />

    
    <glyph glyph-name="fenxi" unicode="&#58975;" d="M224 64c-6.4 0-12.8 0-19.2 6.4-12.8 12.8-19.2 32-6.4 44.8l128 192C332.8 313.6 345.6 320 352 320c0 0 0 0 0 0l166.4 0 57.6 230.4c0 6.4 6.4 12.8 12.8 19.2l192 128C800 710.4 819.2 704 832 691.2c12.8-12.8 6.4-32-6.4-44.8L640 524.8 576 281.6C576 268.8 563.2 256 544 256c0 0 0 0 0 0l-172.8 0-121.6-179.2C243.2 70.4 236.8 64 224 64zM870.4-64 96-64C76.8-64 64-51.2 64-32l0 768C64 755.2 76.8 768 96 768S128 755.2 128 736L128 0l742.4 0c19.2 0 32-12.8 32-32S883.2-64 870.4-64z"  horiz-adv-x="1024" />

    
    <glyph glyph-name="gerenzhongxin" unicode="&#58905;" d="M512 839.315424c61.4916 0 121.114327-12.030872 177.211445-35.757661 54.211926-22.92977 102.910848-55.767317 144.744924-97.601393C875.790446 664.122293 908.627992 615.423371 931.557762 561.211445c23.726789-56.097118 35.757661-115.719845 35.757661-177.211445s-12.030872-121.114327-35.757661-177.211445c-22.92977-54.211926-55.767317-102.910848-97.601393-144.744924-41.833217-41.833217-90.532998-74.671623-144.744924-97.601393-56.097118-23.726789-115.719845-35.757661-177.211445-35.757661S390.885673-59.284552 334.788555-35.557762c-54.211926 22.92977-102.910848 55.767317-144.744924 97.601393s-74.671623 90.532998-97.601393 144.744924c-23.726789 56.097118-35.757661 115.719845-35.757661 177.211445s12.030872 121.114327 35.757661 177.211445c22.92977 54.211926 55.767317 102.910848 97.601393 144.744924 41.833217 41.833217 90.532998 74.671623 144.744924 97.601393C390.885673 827.284552 450.5084 839.315424 512 839.315424M512 896c-282.769291 0-512-229.22985-512-512s229.22985-512 512-512S1024 101.230709 1024 384 794.77015 896 512 896L512 896zM262.782825 70.098852l498.435209 0C761.218034 71.067643 262.782825 70.098852 262.782825 70.098852L262.782825 70.098852zM820.273915 114.929481c-15.778066 108.615378-87.995075 199.021265-186.086017 240.731666C692.043097 394.727127 730.065565 460.750916 730.065565 535.622653c0 119.982353-97.628876 217.245356-218.065565 217.245356S293.935294 655.605006 293.935294 535.622653c0-74.871737 38.024186-140.896385 95.877667-179.95807C291.72116 313.955041 219.50501 223.545718 203.726944 114.929481c-2.075858-4.155151-3.247339-8.837641-3.247339-13.794106 0-17.140213 13.946123-31.036523 31.152469-31.036523 17.204628 0 31.150751 13.89631 31.150751 31.036523l0-31.036523c0 137.122567 111.580153 248.279303 249.217175 248.279303S761.218034 207.221419 761.218034 70.098852l0 31.036523c0-17.140213 13.946123-31.036523 31.152469-31.036523 17.204628 0 31.150751 13.89631 31.150751 31.036523C823.521254 106.091841 822.349773 110.77433 820.273915 114.929481L820.273915 114.929481zM512 380.448625c-86.021421 0-155.758051 69.477255-155.758051 155.174028 0 85.701067 69.736629 155.178322 155.758051 155.178322C598.026574 690.800975 667.758909 621.32372 667.758909 535.622653S598.026574 380.448625 512 380.448625L512 380.448625zM512 380.448625"  horiz-adv-x="1024" />

    
    <glyph glyph-name="erweima" unicode="&#59005;" d="M877.714286-128 877.714286 115.809524 1024 115.809524 1024-128 877.714286-128ZM975.433143 67.730286 926.232381 67.730286 926.232381-79.872 975.433143-79.872 975.433143 67.730286ZM536.380952-128 536.380952 359.619048 730.989714 359.619048 730.989714 213.089524 975.676952 213.089524 975.676952 359.619048 1024 359.619048 1024 165.10781 682.812952 165.10781 682.812952 310.125714 584.94781 310.125714 584.94781-127.268571M536.380952 896 1024 896 1024 408.380952 536.380952 408.380952 536.380952 896ZM584.46019 456.46019 975.920762 456.46019 975.920762 847.969524 584.46019 847.969524 584.46019 456.46019ZM682.666667 749.714286 877.714286 749.714286 877.714286 554.666667 682.666667 554.666667 682.666667 749.714286ZM730.989714 602.989714 829.391238 602.989714 829.391238 701.391238 730.989714 701.391238 730.989714 602.989714ZM0 359.619048 487.619048 359.619048 487.619048-128 0-128 0 359.619048ZM48.030476-79.920762 439.53981-79.920762 439.53981 311.588571 48.030476 311.588571 48.030476-79.920762ZM146.285714 213.333333 341.333333 213.333333 341.333333 18.285714 146.285714 18.285714 146.285714 213.333333ZM194.608762 66.608762 293.010286 66.608762 293.010286 165.010286 194.608762 165.010286 194.608762 66.608762ZM0 896 487.619048 896 487.619048 408.380952 0 408.380952 0 896ZM48.030476 456.46019 439.53981 456.46019 439.53981 847.969524 48.030476 847.969524 48.030476 456.46019ZM146.285714 749.714286 341.333333 749.714286 341.333333 554.666667 146.285714 554.666667 146.285714 749.714286ZM194.608762 602.989714 293.010286 602.989714 293.010286 701.391238 194.608762 701.391238 194.608762 602.989714ZM828.952381-128 682.666667-128 682.666667 115.809524 828.952381 115.809524 828.952381-128ZM780.385524 67.730286 731.184762 67.730286 731.184762-79.872 780.385524-79.872 780.385524 67.730286Z"  horiz-adv-x="1024" />

    
    <glyph glyph-name="xiaoxi" unicode="&#59023;" d="M735.617987 496.217804c-30.883381 0-55.948243-25.064862-55.948243-55.948243 0-30.883381 25.064862-55.948243 55.948243-55.948243 30.883381 0 55.948243 25.064862 55.948243 55.948243C791.567253 471.151919 766.502391 496.217804 735.617987 496.217804L735.617987 496.217804 735.617987 496.217804zM511.823991 104.576009c-32.674167 0-64.228837 3.804652-94.553493 10.266831l-131.703601-79.167061 1.762133 129.773645c-100.95939 60.70457-167.146834 161.076582-167.146834 274.820136 0 185.386244 175.343517 335.692528 391.640772 335.692528s391.640772-150.306284 391.640772-335.692528C903.464763 254.854665 728.121246 104.576009 511.823991 104.576009L511.823991 104.576009 511.823991 104.576009zM511.823991 831.910333c-247.181659 0-447.590038-175.371146-447.590038-391.640772 0-123.618459 65.600067-233.697553 167.845753-305.451784l0-198.086497 196.072631 118.974695c27.13501-4.475941 55.053873-7.077186 83.671655-7.077186 247.181659 0 447.590038 175.343517 447.590038 391.640772C959.413006 656.538163 759.004627 831.910333 511.823991 831.910333L511.823991 831.910333 511.823991 831.910333zM288.028972 496.217804c-30.883381 0-55.948243-25.064862-55.948243-55.948243 0-30.883381 25.064862-55.948243 55.948243-55.948243s55.948243 25.064862 55.948243 55.948243C343.977215 471.151919 318.912353 496.217804 288.028972 496.217804L288.028972 496.217804 288.028972 496.217804zM511.823991 496.217804c-30.883381 0-55.948243-25.064862-55.948243-55.948243 0-30.883381 25.064862-55.948243 55.948243-55.948243 30.883381 0 55.948243 25.064862 55.948243 55.948243C567.772234 471.151919 542.707372 496.217804 511.823991 496.217804L511.823991 496.217804 511.823991 496.217804z"  horiz-adv-x="1024" />

    
    <glyph glyph-name="tuichu1" unicode="&#58897;" d="M980.266667 139.050667c-29.952 0-43.349333-23.765333-43.349334-53.034667l-0.128-70.741333c-8.362667-40.149333-31.829333-56.021333-82.176-60.032l-700.928-0.384c-43.306667 5.162667-61.141333 21.546667-67.242666 59.733333l0.810666 729.856c4.608 38.784 19.285333 56.704 57.045334 63.402667l732.458666 0.384c37.376-7.552 54.698667-26.453333 60.330667-65.664l-0.170667-59.477334c0-29.312 13.397333-53.034667 43.349334-53.034666 29.909333 0 43.008 23.722667 43.008 53.034666l0.384 113.365334C1020.202667 851.84 973.738667 895.829333 916.352 896L103.68 895.573333C46.208 893.098667 0.298667 847.232 0 790.485333l0.469333-817.194666c2.517333-54.656 47.061333-98.261333 102.912-100.778667L904.149333-128h11.776c58.368 0 105.557333 45.226667 107.904 101.76l0.170667 112.213333c-0.042667 29.312-13.824 53.077333-43.733333 53.077334z m-227.84-0.298667c14.464-14.165333 43.392-18.773333 58.325333-4.138667l203.605333 199.722667c7.893333 7.765333 10.453333 19.797333 9.045334 31.488a33.109333 33.109333 0 0 1-6.954667 20.309333 39.381333 39.381333 0 0 1-5.290667 6.698667 34.517333 34.517333 0 0 1-4.565333 3.584l-195.712 192.042667c-14.933333 14.592-44.970667 11.392-59.392-2.773334-14.421333-14.165333-18.133333-43.861333-3.2-58.496l123.605333-121.258666-321.92 0.256c-21.162667 0-48.128-18.816-48.128-43.477334 0-25.984 26.965333-43.136 48.128-43.136l324.096-0.256-125.909333-123.477333c-14.933333-14.634667-10.24-42.922667 4.266667-57.088z"  horiz-adv-x="1024" />

    
    <glyph glyph-name="dianzhan1" unicode="&#58881;" d="M195.1488-62.6944h74.9056V-128H195.1488zM811.3664-61.7216V-128h73.9584v224.7424l-57.6256-158.464zM580.1216 557.3632h0.3584l30.1568 0.7936a12.8256 12.8256 0 0 1-0.3584 25.6h-0.3584l-30.1568-0.7936a12.8256 12.8256 0 0 1 0.3584-25.6zM88.0896 557.184c-0.2048 7.04-4.7616 12.6208-13.1584 12.4416l-36.864-0.9728a12.8 12.8 0 0 1 0.3328-25.5744h0.3584l36.864 0.9728a12.8512 12.8512 0 0 1 12.4672 13.1328zM134.784 725.6064a12.7488 12.7488 0 0 1 18.0736 0.4608 12.7488 12.7488 0 0 1-0.4864 18.0736L125.6192 769.536a12.8 12.8 0 1 1-17.5872-18.5344l26.752-25.3952zM317.6704 803.4304h0.3584a12.8256 12.8256 0 0 1 12.4416 13.1584l-0.8704 33.1264a12.8 12.8 0 0 1-12.8 12.4416h-0.3584a12.8256 12.8256 0 0 1-12.4416-13.1584l0.8704-33.1264a12.8 12.8 0 0 1 12.8-12.4416zM501.7856 737.664a12.7488 12.7488 0 0 1 9.2672 3.9936l19.4304 20.48a12.8 12.8 0 1 1-18.56 17.5872l-19.4304-20.48a12.7488 12.7488 0 0 1 9.2928-21.5808zM142.848 390.6816l-24.6528-26.0096a12.8 12.8 0 0 1 18.6112-17.6128l24.6528 26.0096a12.8 12.8 0 0 1-18.6112 17.6128zM278.7328 464.7168l-215.5264-514.048H808.192l188.5696 514.048H278.7328z m511.5648-488.448H101.7088h131.1488l52.1472 135.3216H158.4384l10.7264 25.6h125.696l49.7408 129.0752H226.944c-1.2032 0-2.2784 0.3328-3.3536 0.6656l10.4448 24.9344h120.4224l56.7296 147.2512h27.4432l-56.7296-147.2512h149.9648l52.9664 147.2512h26.3936a12.4672 12.4672 0 0 0-0.5632-3.84l-51.584-143.4112h154.1376l47.3344 147.2512h26.1632c-0.0512-1.152-0.0256-2.304-0.384-3.4304l-46.2336-143.7952h160.9728a13.056 13.056 0 0 0 4.2496-0.8448l54.3232 148.096h0.4864l-169.8304-462.8736zM522.6752 266.2912h-150.6304l-49.7152-129.0752h153.9072zM663.5008 137.216l41.4976 129.0752H549.888l-46.4384-129.0752zM312.448 111.616l-52.1472-135.3472h158.0288l48.6912 135.3472zM494.2336 111.616l-48.6912-135.3472h166.1952l43.52 135.3472zM638.6176-23.7312h151.2192l49.6384 135.3472h-157.3376zM690.3552 137.216h151.3728c2.4064 0 4.5056-0.8448 6.4256-1.9712l48.0768 131.0464h-164.3776l-41.4976-129.0752zM213.6064 409.6256l-0.128-0.4608 20.4032-13.4144 3.2512 7.6544 1.8432 0.3072 1.6128 7.8848 28.032 65.7664 228.3264 0.0768 3.5072 7.1424c13.952 28.3392 19.5584 53.4784 18.7392 83.968a190.5152 190.5152 0 0 1-191.4368 186.5472l-5.12-0.0768c-105.5744-2.7648-189.2352-90.9568-186.4704-196.5824a192.1024 192.1024 0 0 1 77.44-148.8128z"  horiz-adv-x="1024" />

    
    <glyph glyph-name="renyuanguanli" unicode="&#58917;" d="M641.441 409.39c48.298 37.925 79.462 96.67 79.462 162.691 0 114.114-92.833 206.951-206.957 206.951-114.12 0-206.951-92.831-206.951-206.95 0-66.023 31.19-124.767 79.462-162.692-127.195-50.832-217.43-175.092-217.43-320.2v-102.17H858.87V89.19c0 145.146-90.209 269.368-217.429 320.2z m-127.49 300.66c76.089 0 137.963-61.88 137.963-137.969 0-76.094-61.874-137.973-137.963-137.973-76.093 0-137.972 61.879-137.972 137.973 0 76.09 61.879 137.968 137.972 137.968z m275.935-655.355H238.011V89.19c0 152.15 123.785 275.935 275.972 275.935 152.146 0 275.903-123.785 275.903-275.935v-34.495z m-506.84 342.703c0.946 2.083 0.946 4.306 1.415 6.465 0.338 1.309 0.708 2.56 0.882 3.944 0.264 2.723 0.1 5.314-0.274 7.975-0.132 1.42 0.2 2.766-0.132 4.18-0.206 0.807-0.776 1.383-1.014 2.191-0.534 1.546-1.277 2.93-2.016 4.376-1.42 2.965-2.967 5.659-5.089 8.05-0.305 0.337-0.676 0.575-1.008 0.912a33.318 33.318 0 0 1-10.847 7.543c-37.323 16.637-61.441 53.692-61.441 94.515 0 48.034 32.536 89.401 79.155 100.613 18.527 4.482 29.913 23.115 25.469 41.642-4.519 18.522-23.215 29.77-41.642 25.462C188.8 686.533 134.532 617.55 134.532 537.55c0-43.652 16.612-84.577 44.836-115.698-89.766-46.52-148.308-139.55-148.308-244.82v-53.353c0-19.066 15.429-34.489 34.488-34.489 19.067 0 34.496 15.424 34.496 34.489v53.353c0 95.398 64.133 177.245 156.156 200.423 11.45 1.615 21.864 8.588 26.846 19.943z m565.352 24.454c28.224 31.121 44.824 72.046 44.824 115.703 0 77.91-52.478 146.424-127.621 166.597-18.359 4.92-37.287-5.964-42.275-24.354-4.951-18.422 5.965-37.318 24.354-42.274 45.068-12.089 76.563-53.218 76.563-99.975 0-40.818-24.08-77.803-61.372-94.484-4.17-1.82-7.848-4.343-11.01-7.643-0.274-0.305-0.607-0.506-0.881-0.812-2.154-2.386-3.701-5.152-5.153-8.15-0.7-1.446-1.478-2.798-1.985-4.307-0.232-0.776-0.806-1.384-1.008-2.19-0.338-1.415 0-2.761-0.136-4.176-0.37-2.66-0.54-5.258-0.27-7.986 0.168-1.378 0.539-2.63 0.877-3.937 0.47-2.16 0.47-4.383 1.414-6.472 4.988-11.349 15.397-18.327 26.846-19.936 92.024-23.179 156.157-105.026 156.157-200.423v-53.354c0-19.065 15.428-34.489 34.495-34.489 19.06 0 34.489 15.424 34.489 34.489v53.354c-0.006 105.268-58.543 198.3-148.308 244.819z"  horiz-adv-x="1024" />

    
    <glyph glyph-name="fanhui" unicode="&#58913;" d="M512-128C229.239467-128 0 101.239467 0 384 0 666.760533 229.239467 896 512 896c282.760533 0 512-229.239467 512-512 0-282.794667-229.239467-512-512-512z m0 960C264.567467 832 64 631.432533 64 384S264.567467-64 512-64 960 136.533333 960 384 759.432533 832 512 832z m223.982933-480.017067h-338.7392l131.8912-131.857066a32.017067 32.017067 0 0 0-45.2608-45.294934l-181.009066 181.0432A31.402667 31.402667 0 0 0 294.570667 384a31.470933 31.470933 0 0 0 8.2944 28.125867l181.009066 181.009066a31.982933 31.982933 0 1 0 45.2608-45.2608l-131.8912-131.8912h338.7392a31.982933 31.982933 0 1 0 0-64z"  horiz-adv-x="1024" />

    
    <glyph glyph-name="peizhi" unicode="&#58891;" d="M929.792 315.392l40.96 40.96-71.168 71.168-40.96-40.96c-25.6 20.48-55.808 30.72-91.648 35.84V478.208h-101.888v-55.808c-30.72-5.12-60.928-20.48-91.648-35.84l-40.96 40.96-71.68-71.68 40.96-40.96c-15.36-25.6-30.72-55.808-35.84-91.648H410.112v-101.888H465.92c5.12-30.72 20.48-60.928 35.84-91.648l-40.96-35.84 71.68-70.656 40.96 40.96c25.6-20.48 55.808-30.72 91.648-35.84v-56.32h101.888v51.2c30.72 5.12 60.928 20.48 91.648 35.84l40.96-40.96 71.168 71.168-40.96 40.96c15.36 25.6 30.72 55.808 35.84 91.648h55.808v101.888h-55.808c-5.12 35.328-20.48 66.048-35.84 91.648z m-214.016-295.424c-81.408 0-153.088 71.168-153.088 153.088 0 86.528 71.168 153.088 153.088 153.088 86.528 0 153.088-66.048 153.088-153.088 0-81.92-66.56-153.088-153.088-153.088zM410.112 794.112L358.912 896H2.56v-1018.88h407.552v101.888H104.448V590.336h815.104v-101.888h101.888V794.112H410.112z"  horiz-adv-x="1024" />

    
    <glyph glyph-name="guzhang2" unicode="&#59064;" d="M505.856 306.688c-13.824 0-25.6 14.848-27.136 35.328l-17.408 245.76c-2.56 52.224 16.896 79.36 44.544 79.36 27.136 0 47.104-27.136 44.544-79.36l-17.408-245.76c-1.536-19.968-13.312-35.328-27.136-35.328zM473.6 242.688c0-17.92 14.336-32.256 32.256-32.256s32.256 14.336 32.256 32.256-14.336 32.256-32.256 32.256c-17.408-0.512-32.256-14.848-32.256-32.256zM136.192 796.672c-40.448-1.024-76.288-37.376-77.824-72.704v-534.528c7.168-50.176 53.248-71.68 75.264-71.68h168.448c18.432 0 44.032-11.264 56.832-25.088l109.056-109.568c12.8-13.824 48.64-15.36 60.928-1.536l110.08 111.104c12.8 13.824 37.888 25.088 56.832 25.088h186.88c55.296 10.752 69.632 47.104 71.68 74.752V721.92c-4.096 30.72-23.04 67.584-77.824 73.728l-740.352 1.024z m793.088-610.304c0-19.456-15.872-35.328-35.328-35.328h-209.92c-19.456 0-45.568-11.264-58.368-24.576-12.8-13.824-22.528-24.576-21.504-24.576s-9.728-11.776-23.04-26.112L525.824 14.848c-13.312-14.336-34.816-14.336-48.128 0l-55.808 60.416c-13.312 14.336-23.552 26.112-22.528 26.112 0.512 0-9.216 11.264-21.504 24.576-12.8 13.824-38.912 24.576-58.368 24.576h-194.56c-19.456 0-35.328 15.872-35.328 35.328V727.04c0 19.456 15.872 35.328 35.328 35.328h769.024c19.456 0 35.328-15.872 35.328-35.328v-540.672z"  horiz-adv-x="1024" />

    
    <glyph glyph-name="quxiao" unicode="&#58884;" d="M512 832a448 448 0 1 1 0-896A448 448 0 0 1 512 832z m180.992-583.744a32.32 32.32 0 0 0 0-45.248 32.32 32.32 0 0 0-45.248 0L512 338.752l-135.744-135.744a32.32 32.32 0 0 0-45.248 0 32.32 32.32 0 0 0 0 45.248L466.752 384 331.008 519.744a32.32 32.32 0 0 0 0 45.248 32.32 32.32 0 0 0 45.248 0L512 429.248l135.744 135.744a32.32 32.32 0 0 0 45.248 0 32.32 32.32 0 0 0 0-45.248L557.248 384l135.744-135.744z"  horiz-adv-x="1024" />

    
    <glyph glyph-name="shouye" unicode="&#59142;" d="M997.376 422.912c-2.048 16.384-10.24 30.72-22.528 43.008L569.344 871.424C555.008 887.808 532.48 896 512 896s-43.008-8.192-57.344-24.576L266.24 685.056v10.24c0 22.528-18.432 40.96-40.96 40.96H143.36c-22.528 0-40.96-18.432-40.96-40.96v-163.84c0-4.096 0-6.144 2.048-10.24L49.152 465.92c-12.288-12.288-20.48-28.672-22.528-43.008 0-4.096-2.048-8.192-2.048-12.288 0-24.576 14.336-45.056 34.816-55.296 8.192-4.096 16.384-6.144 26.624-6.144 6.144 0 12.288 2.048 18.432 4.096 8.192 2.048 16.384 8.192 24.576 14.336l2.048 2.048 12.288 10.24V-46.08c0-45.056 36.864-81.92 81.92-81.92h573.44c45.056 0 81.92 36.864 81.92 81.92V379.904l12.288-12.288 2.048-2.048c6.144-6.144 14.336-10.24 24.576-14.336 6.144-2.048 12.288-4.096 18.432-4.096 10.24 0 18.432 2.048 26.624 6.144 20.48 10.24 34.816 30.72 34.816 55.296 0 6.144 0 10.24-2.048 14.336zM143.36 695.296h81.92v-51.2l-81.92-81.92V695.296zM839.68-46.08c0-22.528-18.432-40.96-40.96-40.96h-40.96v61.44c0 6.144-4.096 10.24-10.24 10.24s-10.24-4.096-10.24-10.24v-61.44H491.52V322.56c0 12.288 8.192 20.48 20.48 20.48h204.8c12.288 0 20.48-8.192 20.48-20.48v-225.28c0-6.144 4.096-10.24 10.24-10.24s10.24 4.096 10.24 10.24V322.56c0 22.528-18.432 40.96-40.96 40.96H512c-22.528 0-40.96-18.432-40.96-40.96v-409.6H225.28c-22.528 0-40.96 18.432-40.96 40.96V420.864l147.456 147.456 40.96 40.96L512 748.544l139.264-139.264 40.96-40.96 147.456-147.456V-46.08z m98.304 436.224c-6.144 0-10.24 2.048-14.336 6.144l-40.96 40.96-2.048 2.048-40.96 40.96-88.064 88.064-40.96 40.96L512 807.936 313.344 609.28l-40.96-40.96L184.32 480.256l-40.96-40.96-2.048-2.048-40.96-40.96c-4.096-4.096-8.192-6.144-14.336-6.144-10.24 0-20.48 8.192-20.48 20.48 0 10.24 4.096 20.48 12.288 26.624l30.72 30.72 24.576 24.576 10.24 10.24 28.672 28.672 53.248 53.248 24.576 24.576 16.384 16.384L483.328 842.752c8.192 8.192 18.432 12.288 28.672 12.288s20.48-4.096 28.672-12.288L774.144 609.28l106.496-106.496 36.864-36.864 30.72-30.72c8.192-8.192 12.288-16.384 12.288-26.624-2.048-10.24-12.288-18.432-22.528-18.432zM485.376 689.152l-245.76-245.76c-4.096-4.096-4.096-10.24 0-14.336s10.24-4.096 14.336 0l245.76 245.76c4.096 4.096 4.096 10.24 0 14.336s-10.24 4.096-14.336 0z"  horiz-adv-x="1024" />

    
    <glyph glyph-name="dianbiaoliebiao" unicode="&#58885;" d="M928 704h-230.4L595.2 825.6C556.8 864 524.8 896 480 896h-384C44.8 896 0 857.6 0 806.4v-832c0-57.6 44.8-102.4 96-102.4h832c51.2 0 96 44.8 96 102.4v640c0 51.2-44.8 89.6-96 89.6zM64 806.4c0 12.8 12.8 25.6 32 25.6h384c19.2 0 32-12.8 64-51.2L614.4 704H64V806.4z m896-832c0-19.2-12.8-38.4-32-38.4h-832c-19.2 0-32 19.2-32 38.4V640h864c19.2 0 32-12.8 32-25.6v-640z m-64 339.2c0-12.8 0-12.8-6.4-19.2L704 76.8c-6.4-6.4-12.8-6.4-19.2-6.4-6.4 0-12.8 6.4-12.8 6.4-12.8 6.4-12.8 25.6-12.8 38.4l57.6 140.8H608c-12.8 0-19.2-6.4-25.6 6.4s0 6.4 6.4 19.2l185.6 224c6.4 12.8 25.6 6.4 32 0 12.8-6.4 12.8-25.6 12.8-38.4L761.6 320h108.8c12.8 0 19.2 0 25.6-6.4zM518.4 416c0-19.2-19.2-32-32-32H198.4c-19.2 0-32 12.8-32 32s12.8 32 32 32h288c12.8 0 32-12.8 32-32z m0-256c0-19.2-12.8-32-32-32H198.4c-19.2 0-32 12.8-32 32s12.8 32 32 32h288c12.8 0 32-12.8 32-32z"  horiz-adv-x="1024" />

    
    <glyph glyph-name="guzhang1" unicode="&#58930;" d="M692.378 352.209l-54.174-54.75-39.455 35.135-47.902 46.462 85.917 91.933c96.477-42.046 196.57-24.99 263.928 33.375 66.142 57.406 66.142 170.267 66.142 170.267l-52.959 20.671-101.788-103.037L663.643 739.43 766.136 843.138 745.21 895.968s-102.557 0-170.939-67.87c-63.55-63.038-83.677-166.747-38.91-260.504l-89.15-86.973-128.316 124.508-7.616 87.197-120.124 77.438-33.887-33.919-33.823-33.95-33.919-33.92 77.31-120.348 81.757-7.136 131.548-125.34L42.99 87.225s-9.695-60.254 29.568-99.58c31.647-31.68 89.085-25.184 89.085-25.184l326.262 349.11 47.294-45.087 35.135-34.975-67.358-69.182c96.637-96.733 193.242-193.53 289.88-290.327 99.516 26.815 156.89 95.901 189.497 189.818-96.733 96.861-193.37 193.658-289.975 290.391zM169.451 33.883c-15.488-15.584-40.671-15.776-56.35-0.288-15.616 15.52-15.744 40.799-0.289 56.51 15.456 15.712 40.703 15.872 56.383 0.288 15.583-15.551 15.807-40.767 0.256-56.51z m631.884-87.357L581.534 166.679l32.575 32.607 227.609-228.09-40.383-24.67z m77.438 61.854l-227.61 227.993 32.608 32.703L903.54 48.922l-24.767-40.542z m0 0"  horiz-adv-x="1024" />

    
    <glyph glyph-name="icon-test" unicode="&#58886;" d="M1125.636 674.273v18.479h-847.994v-18.479h847.994zM1199.562 766.66v-36.945h-18.479v-737.13h73.931v-55.436h-1106.698v55.436h73.931v737.13h-18.479v36.945h-18.479v16.421h1032.777v-16.421h-18.479zM1070.195 64.427h-295.677v498.948h295.677v-498.948zM866.923 249.251v147.894h-55.436v-147.894h55.436zM554.788 452.528h-18.479v-36.945h-18.479v-18.479h-18.479v-18.479h-18.479v-18.479h129.355v-18.479h-18.479v-18.479h-18.479v-18.479h-18.479v-18.479h-18.479v-18.479h-18.479v-18.479h-18.479v-18.427h-18.479v-18.479h-18.479v-18.479h-18.479v36.945h18.479v36.922h18.479v36.945h-73.931v92.389h18.479v92.389h147.809v-18.479h-18.479v-18.479zM684.189 655.793h-406.562v-663.199h406.49v663.199zM1125.636-7.406v663.199h-422.974v-663.199h422.974z"  horiz-adv-x="1408" />

    
    <glyph glyph-name="icon-test1" unicode="&#58887;" d="M301.159-105.755v186.913h-93.426v747.596h981.196v-747.596h-93.426v-186.913h-93.426v186.913h-46.715v-186.913h-93.426v186.913h-46.715v-186.913h-93.426v186.913h-46.715v-186.913h-93.426v186.913h-46.715v-186.913h-93.426v186.913h-46.715v-186.913h-93.426zM301.159 735.27h794.289v-560.686h-794.289v560.686zM254.448 781.99v-654.141h887.753v654.141h-887.753z"  horiz-adv-x="1408" />

    
    <glyph glyph-name="zujian" unicode="&#58894;" d="M950.645034-127.974401h-261.881453l19.122722 43.442114c5.734257 13.055674 8.652584 26.879328 8.652584 41.163771 0 56.088198-45.310867 101.731857-101.015075 101.731857s-101.015075-45.61806-101.015075-101.731857c0-14.284443 2.918327-28.133697 8.652584-41.138171L542.284043-127.974401H265.657359c-40.446989 0-73.342166 33.151171-73.342167 73.879753v191.688008c-9.855754-1.868753-19.865103-2.81593-29.900052-2.815929-89.546561 0-162.40234 73.393365-162.40234 163.57991 0 90.237744 72.855779 163.60551 162.40234 163.60551 10.034949 0 20.044299-0.947176 29.900052-2.81593v176.712383c0 40.728582 32.895178 73.879753 73.342167 73.879753h189.000075c-1.023974 7.500612-1.535962 15.103622-1.535962 22.681032C453.121472 822.606635 525.977251 896 615.523812 896s162.427939-73.393365 162.427939-163.579911c0-7.654209-0.511987-15.231619-1.561561-22.681032h174.254844c40.446989 0 73.342166-33.151171 73.342166-73.879753V368.909177l-43.9797 21.247469a99.453514 99.453514 0 0 1-43.62131 9.932552c-55.704207 0-101.015075-45.643659-101.015074-101.731857 0-56.113797 45.310867-101.757456 101.015074-101.757456 15.282818 0 29.951251 3.353516 43.62131 9.958151l43.9797 21.247469v-281.925752C1023.9872-94.823229 991.092023-127.974401 950.645034-127.974401z m-174.254844 61.848054h174.254844c6.579036 0 11.929302 5.375866 11.929302 12.031699v190.971226c-8.652584-1.382365-17.407565-2.099148-26.188146-2.099147-89.546561 0-162.40234 73.393365-162.40234 163.57991 0 90.237744 72.855779 163.60551 162.40234 163.60551 8.857379 0 17.61236-0.691183 26.188146-2.099148v175.995601c0 6.630234-5.350266 12.031699-11.929302 12.031699H688.840379l19.097123 43.416514a101.552661 101.552661 0 0 1 8.601385 41.112572c0 56.088198-45.310867 101.731857-101.015075 101.731857S514.508737 788.482688 514.508737 732.420089c0-14.284443 2.892728-28.108097 8.626985-41.112572l19.045923-43.416514H265.657359a12.0061 12.0061 0 0 1-11.954902-12.031699v-270.585236l-44.850078 23.449014a99.248719 99.248719 0 0 1-46.41164 11.391715c-55.704207 0-101.015075-45.643659-101.015075-101.731857 0-56.113797 45.310867-101.757456 101.015075-101.757456 16.332392 0 31.948001 3.839904 46.41164 11.417315l44.850078 23.449014v-285.586461c0-6.655834 5.375866-12.031699 11.954902-12.031699h189.025674a165.781455 165.781455 0 0 0-1.561561 22.757831c0 90.212145 72.855779 163.579911 162.40234 163.579911s162.427939-73.367766 162.427939-163.579911c0-7.679808-0.511987-15.257219-1.561561-22.757831z"  horiz-adv-x="1024" />

    
    <glyph glyph-name="EPCzuodaohangtubiao-" unicode="&#59356;" d="M369.777778 839.111111H113.777778c-34.133333 0-56.888889-22.755556-56.888889-56.888889v-256c0-17.066667 11.377778-28.444444 28.444444-28.444444s28.444444 11.377778 28.444445 28.444444V782.222222h256c17.066667 0 28.444444 11.377778 28.444444 28.444445S386.844444 839.111111 369.777778 839.111111zM654.222222 839.111111H910.222222c34.133333 0 56.888889-22.755556 56.888889-56.888889v-256c0-17.066667-11.377778-28.444444-28.444444-28.444444s-28.444444 11.377778-28.444445 28.444444V782.222222h-256c-17.066667 0-28.444444 11.377778-28.444444 28.444445s11.377778 28.444444 28.444444 28.444444zM369.777778-71.111111H113.777778c-34.133333 0-56.888889 22.755556-56.888889 56.888889v256c0 17.066667 11.377778 28.444444 28.444444 28.444444s28.444444-11.377778 28.444445-28.444444V-14.222222h256c17.066667 0 28.444444-11.377778 28.444444-28.444445s-11.377778-28.444444-28.444444-28.444444zM654.222222-71.111111H910.222222c34.133333 0 56.888889 22.755556 56.888889 56.888889v256c0 17.066667-11.377778 28.444444-28.444444 28.444444s-28.444444-11.377778-28.444445-28.444444V-14.222222h-256c-17.066667 0-28.444444-11.377778-28.444444-28.444445s11.377778-28.444444 28.444444-28.444444zM221.866667 384H56.888889v-56.888889h193.422222l62.577778 56.888889 102.4-96.711111L523.377778 554.666667l85.333333-420.977778 96.711111 318.577778 45.511111-125.155556H967.111111V384h-170.666667l-96.711111 204.8-85.333333-290.133333-73.955556 438.044444L398.222222 378.311111 312.888889 463.644444z"  horiz-adv-x="1024" />

    
    <glyph glyph-name="xiala" unicode="&#58883;" d="M919.8 514.9L555.2 116.20000000000005a57.377 57.377 0 0 0-43.1-19.5c-16.5 0-32.2 7.1-43.1 19.5L104.4 514.9c-17.8 18.8-23.3 46.2-14.1 70.4s31.4 41.1 57.2 43.4h728.9c25.9-2.2 48.2-19 57.4-43.3 9.3-24.3 3.8-51.6-14-70.5z"  horiz-adv-x="1024" />

    


  </font>
</defs>
</svg>
